<svg version="1.0" xmlns="http://www.w3.org/2000/svg"
 width="500.000000pt" height="500.000000pt" viewBox="0 0 500.000000 500.000000"
 preserveAspectRatio="xMidYMid meet">

<g transform="translate(0.000000,500.000000) scale(0.100000,-0.100000)"
fill="#000000" stroke="none">
<path d="M0 2500 l0 -2500 2500 0 2500 0 0 2500 0 2500 -2500 0 -2500 0 0
-2500z m4990 -5 l0 -2485 -2487 0 -2488 0 2485 2485 c1367 1367 2486 2485
2487 2485 2 0 3 -1118 3 -2485z m-3967 1621 c58 -29 81 -69 85 -148 4 -59 1
-73 -22 -113 -36 -61 -88 -87 -188 -93 l-78 -5 0 -114 0 -114 -37 3 -38 3 -3
290 c-1 159 0 296 3 303 8 22 229 13 278 -12z"/>
<path d="M4105 1583 c-36 -91 -205 -569 -205 -580 0 -10 10 -13 36 -11 36 3
37 5 64 78 l28 75 127 0 127 0 28 -75 c26 -71 29 -75 60 -78 18 -2 36 0 41 5
7 7 -184 557 -205 592 -4 6 -27 11 -51 11 -31 0 -45 -5 -50 -17z m104 -222
c28 -79 51 -146 51 -148 0 -1 -47 -3 -105 -3 -58 0 -105 1 -105 3 0 3 86 262
95 286 3 8 7 12 10 10 2 -3 27 -69 54 -148z"/>
<path d="M820 3950 l0 -120 63 0 c81 0 121 23 138 80 16 51 0 110 -38 139 -20
17 -40 21 -94 21 l-69 0 0 -120z"/>
</g>
</svg>
